<svg id="Layer_1" enable-background="new 0 0 512.058 512.058" height="512" viewBox="0 0 512.058 512.058" width="512" xmlns="http://www.w3.org/2000/svg"><g><path d="m65.879 0v512.058h301.503l78.797-78.688v-433.37zm30 30h320.3v362.049h-90.134v90.009h-230.166zm260.166 450.982v-58.933h59.014z"/><path d="m368.159 349.08v-95.305h-143.956c-44.28 0-80.305 36.024-80.305 80.305s36.024 80.305 80.305 80.305c39.156 0 71.856-28.167 78.9-65.305zm-93.651-30v15c0 27.738-22.566 50.305-50.305 50.305s-50.305-22.566-50.305-50.305 22.566-50.305 50.305-50.305h113.956v35.305z"/><path d="m224.203 312.213c-12.058 0-21.867 9.81-21.867 21.867s9.81 21.867 21.867 21.867 21.867-9.81 21.867-21.867-9.809-21.867-21.867-21.867z"/><path d="m144.314 189.998h223.429v30h-223.429z"/><path d="m144.314 129.995h223.429v30h-223.429z"/><path d="m144.314 69.991h223.429v30h-223.429z"/></g></svg>