<svg id="Capa_1" enable-background="new 0 0 512.01 512.01" height="512" viewBox="0 0 512.01 512.01" width="512" xmlns="http://www.w3.org/2000/svg"><g><path d="m256.005 283.469-27.704 55.408-61.258 9.226 44.136 43.47-10.157 61.113 54.983-28.544 54.983 28.544-10.157-61.113 44.136-43.47-61.258-9.226zm15.552 114.946-15.552-8.074-15.552 8.074 2.872-17.286-12.483-12.296 17.326-2.61 7.837-15.673 7.837 15.673 17.326 2.61-12.483 12.296z"/><path d="m473.667 53.671-107.323-53.671-110.339 223.166-110.339-223.166-107.323 53.671 115.976 234.64c-20.734 23.74-33.314 54.776-33.314 88.698 0 74.439 60.561 135 135 135s135-60.561 135-135c0-33.922-12.58-64.958-33.314-88.698zm-93.788-13.36 53.663 26.836-98.938 200.168c-16.183-11.628-35.03-19.767-55.436-23.31zm-247.748 0 100.711 203.694c-20.406 3.543-39.253 11.682-55.436 23.31l-98.938-200.168zm123.874 441.699c-57.897 0-105-47.103-105-105s47.103-105 105-105 105 47.103 105 105-47.103 105-105 105z"/></g></svg>